<svg width="500" height="500" viewBox="0 0 500 500" fill="none" xmlns="http://www.w3.org/2000/svg">
<path d="M366.533 125H132.467C128.36 125 125 128.37 125 132.489V367.216C125 371.372 128.36 374.704 132.467 374.704H160.657C161.702 257.21 256.837 161.806 374 160.758V132.489C374 128.37 370.64 125 366.533 125ZM209.643 207.486C209.568 209.058 208.299 210.332 206.693 210.406L170.887 211.754C169.431 211.829 168.124 210.818 167.788 209.395L155.654 160.009C155.094 157.762 157.147 155.74 159.35 156.302L208.635 168.433C210.016 168.77 211.024 170.081 210.95 171.541L209.643 207.486Z" fill="#060021"/>
<path d="M374 205.651V245.415C303.359 246.464 246.121 303.901 245.076 374.704H205.424C206.507 281.997 281.517 206.737 374 205.651Z" fill="#060021"/>
<path d="M374 290.346V367.216C374 371.372 370.64 374.704 366.533 374.704H289.88C290.925 328.687 328.076 291.395 374 290.346Z" fill="#060021"/>
</svg>
