<svg width="500" height="500" viewBox="0 0 500 500" fill="none" xmlns="http://www.w3.org/2000/svg">
<path d="M377.813 113H121.187C116.684 113 113 116.684 113 121.187V377.813C113 382.357 116.684 386 121.187 386H152.094C153.24 257.544 257.544 153.24 386 152.094V121.187C386 116.684 382.316 113 377.813 113ZM205.801 203.181C205.719 204.901 204.327 206.292 202.567 206.374L163.31 207.848C161.713 207.93 160.281 206.825 159.912 205.269L146.608 151.275C145.994 148.819 148.246 146.608 150.661 147.222L204.696 160.485C206.21 160.854 207.316 162.287 207.234 163.883L205.801 203.181Z" fill="#060021"/>
<path d="M386 201.176V244.649C308.55 245.796 245.795 308.591 244.649 386H201.176C202.363 284.644 284.602 202.363 386 201.176Z" fill="#060021"/>
<path d="M386 293.772V377.813C386 382.357 382.316 386 377.813 386H293.772C294.918 335.691 335.649 294.919 386 293.772Z" fill="#060021"/>
</svg>
